<svg width="36" height="36" viewBox="0 0 36 36" fill="none" xmlns="http://www.w3.org/2000/svg">
<path d="M34.5858 5.05279C35.3668 4.27174 35.3668 3.00541 34.5858 2.22436L33.7756 1.41421C32.9946 0.633164 31.7283 0.633165 30.9472 1.41421L19.4142 12.9472C18.6332 13.7283 17.3668 13.7283 16.5858 12.9472L5.05279 1.41421C4.27174 0.633165 3.00541 0.633165 2.22436 1.41421L1.41421 2.22436C0.633165 3.00541 0.633165 4.27174 1.41421 5.05278L12.9472 16.5858C13.7283 17.3668 13.7283 18.6332 12.9472 19.4142L1.41421 30.9472C0.633165 31.7283 0.633165 32.9946 1.41421 33.7756L2.22436 34.5858C3.00541 35.3668 4.27174 35.3668 5.05279 34.5858L16.5858 23.0528C17.3668 22.2717 18.6332 22.2717 19.4142 23.0528L30.9472 34.5858C31.7283 35.3668 32.9946 35.3668 33.7756 34.5858L34.5858 33.7756C35.3668 32.9946 35.3668 31.7283 34.5858 30.9472L23.0528 19.4142C22.2717 18.6332 22.2717 17.3668 23.0528 16.5858L34.5858 5.05279Z" fill="#373E40"/>
</svg>
