<svg width="27" height="27" viewBox="0 0 27 27" fill="none" xmlns="http://www.w3.org/2000/svg">
<path d="M12.3077 25.482C11.7677 25.482 11.2389 25.347 10.7439 25.077C9.75395 24.5258 9.1577 23.5245 9.1577 22.3995V16.437C9.1577 15.8745 8.78645 15.0308 8.4377 14.6033L4.2302 10.1483C3.52145 9.43953 2.98145 8.22453 2.98145 7.31328V4.72578C2.98145 2.92578 4.3427 1.51953 6.0752 1.51953H20.9252C22.6352 1.51953 24.0189 2.90328 24.0189 4.61328V7.08828C24.0189 8.26953 23.3102 9.60828 22.6464 10.272L17.7752 14.5808C17.3027 14.9745 16.9314 15.8408 16.9314 16.5383V21.3758C16.9314 22.377 16.3014 23.5358 15.5139 24.0083L13.9614 25.0095C13.4552 25.3245 12.8814 25.482 12.3077 25.482ZM6.0752 3.20703C5.2877 3.20703 4.66895 3.87078 4.66895 4.72578V7.31328C4.66895 7.72953 5.00645 8.53953 5.43395 8.96703L9.7202 13.4783C10.2939 14.187 10.8564 15.3683 10.8564 16.4258V22.3883C10.8564 23.1195 11.3627 23.4795 11.5764 23.592C12.0489 23.8508 12.6227 23.8508 13.0614 23.5808L14.6252 22.5795C14.9402 22.3883 15.2552 21.7808 15.2552 21.3758V16.5383C15.2552 15.3345 15.8402 14.007 16.6839 13.2983L21.4989 9.03453C21.8814 8.65203 22.3427 7.74078 22.3427 7.07703V4.61328C22.3427 3.83703 21.7127 3.20703 20.9364 3.20703H6.0752Z" fill="#292D32"/>
<path d="M6.75013 12.0947C6.59263 12.0947 6.44638 12.0497 6.30013 11.9709C5.90638 11.7234 5.78263 11.1947 6.03013 10.8009L11.5764 1.91341C11.8239 1.51966 12.3414 1.39591 12.7351 1.64341C13.1289 1.89091 13.2526 2.40841 13.0051 2.80216L7.45888 11.6897C7.30138 11.9484 7.03138 12.0947 6.75013 12.0947Z" fill="#292D32"/>
</svg>
