<svg width="55" height="55" viewBox="0 0 55 55" fill="none" xmlns="http://www.w3.org/2000/svg">
<path fill-rule="evenodd" clip-rule="evenodd" d="M27.5 0C12.3122 0 0 12.3122 0 27.5C0 42.6878 12.3122 55 27.5 55C42.6878 55 55 42.6878 55 27.5C55 12.3122 42.6878 0 27.5 0ZM27.4584 29.8138L17.1861 22.3571V38.0761H15.4699C14.5137 38.0761 13.7537 37.316 13.7537 36.3599V18.9773C13.7537 18.9104 13.7574 18.8473 13.7646 18.7879C13.7936 18.5098 13.8935 18.2372 14.0721 17.9966C14.636 17.2365 15.7392 17.0649 16.5238 17.6288L27.4829 25.5969L38.5156 17.5307C39.2756 16.9669 40.3544 17.1385 40.9183 17.923C41.2178 18.3267 41.3098 18.8203 41.2127 19.279V36.3844C41.2127 37.316 40.4526 38.0761 39.4965 38.0761H37.7803V22.3193L27.4584 29.8138Z" fill="#488286"/>
</svg>
