<svg width="55" height="55" viewBox="0 0 55 55" fill="none" xmlns="http://www.w3.org/2000/svg">
<path d="M51.5539 54.9999C22.2264 55.0415 -0.0313418 32.517 3.31286e-05 3.44613C3.31286e-05 1.54765 1.53905 0 3.43753 0H12.5103C14.2139 0 15.661 1.25169 15.9112 2.93676C16.5107 6.97537 17.6865 10.9071 19.4029 14.6118L19.7562 15.3742C20.2473 16.4344 19.9144 17.694 18.9636 18.373C16.1538 20.3795 15.08 24.4185 17.269 27.57C20.0158 31.5248 23.4783 34.9865 27.4322 37.7321C30.5835 39.9204 34.6218 38.8468 36.6283 36.0375C37.3078 35.0862 38.5681 34.7531 39.6289 35.2445L40.3878 35.5961C44.0928 37.3123 48.0248 38.4882 52.0638 39.0876C53.7489 39.3377 55 40.7848 55 42.4884V51.5624C55 53.4609 53.4572 54.9999 51.5588 54.9999L51.5539 54.9999Z" fill="#488286"/>
</svg>
