<svg width="55" height="55" viewBox="0 0 55 55" fill="none" xmlns="http://www.w3.org/2000/svg">
<path fill-rule="evenodd" clip-rule="evenodd" d="M55 27.5C55 42.6878 42.6878 55 27.5 55C12.3122 55 0 42.6878 0 27.5C0 12.3122 12.3122 0 27.5 0C42.6878 0 55 12.3122 55 27.5ZM18.4153 24.9809C15.6605 26.1837 12.83 27.4195 10.2417 28.8452L10.2416 28.8454C8.89007 29.8349 10.6865 30.5347 12.3716 31.1913C12.6395 31.2957 12.9046 31.3989 13.1538 31.5021C13.3612 31.5658 13.5721 31.633 13.7857 31.7011C15.6599 32.2982 17.7498 32.964 19.5693 31.9624C22.5583 30.2454 25.3791 28.2604 28.1976 26.2768C29.1211 25.6269 30.0443 24.9772 30.9731 24.3371C31.0166 24.3093 31.0657 24.2775 31.1194 24.2427C31.9107 23.7298 33.6902 22.5762 33.032 24.1657C31.4754 25.8679 29.8082 27.3748 28.1319 28.8899C27.0021 29.9109 25.8683 30.9357 24.7614 32.0266C23.7973 32.8099 22.7963 34.3851 23.8758 35.4819C26.3621 37.2225 28.8873 38.9209 31.411 40.6183C32.2323 41.1707 33.0534 41.7229 33.8729 42.2765C35.2619 43.3855 37.4327 42.4885 37.7381 40.7556C37.8739 39.9584 38.0102 39.1613 38.1465 38.3641C38.9 33.9588 39.6538 29.5518 40.3196 25.1321C40.4101 24.4389 40.5127 23.7456 40.6153 23.052C40.8641 21.3709 41.1132 19.6878 41.1909 17.9977C40.9904 16.3111 38.9454 16.6819 37.8073 17.0612C31.9576 19.2871 26.1663 21.678 20.398 24.111C19.7445 24.4005 19.0821 24.6897 18.4153 24.9809Z" fill="#488286"/>
</svg>
