<svg width="56" height="56" viewBox="0 0 56 56" fill="none" xmlns="http://www.w3.org/2000/svg">
<path fill-rule="evenodd" clip-rule="evenodd" d="M36.8279 0.884766H19.9436C4.53429 0.884766 0.885742 4.53332 0.885742 19.9426V36.8269C0.885742 52.2362 4.53429 55.8848 19.9436 55.8848H36.8279C52.2372 55.8848 55.8857 52.2362 55.8857 36.8269V19.9426C55.8857 4.53332 52.2372 0.884766 36.8279 0.884766ZM44.7072 18.3512C45.9105 18.3512 46.1822 18.9723 45.9105 19.8262C45.4865 21.7832 41.9652 26.9745 40.8746 28.5823C40.6674 28.8879 40.5479 29.064 40.5541 29.064C40.1271 29.7627 39.9719 30.0732 40.5541 30.8495C40.7646 31.1365 41.2109 31.5744 41.7209 32.0749C42.2455 32.5897 42.8376 33.1707 43.3099 33.7217C45.0177 35.6625 46.3374 37.2927 46.6868 38.4183C46.9973 39.5439 46.4539 40.1261 45.2894 40.1261H41.2916C40.2321 40.1261 39.686 39.5177 38.5221 38.221C38.023 37.665 37.4104 36.9824 36.595 36.167C34.2273 33.877 33.1794 33.5665 32.5971 33.5665C31.782 33.5665 31.5491 33.7606 31.5491 34.925V38.5347C31.5491 39.5051 31.2386 40.0873 28.6769 40.0873C24.4461 40.0873 19.7496 37.5255 16.4504 32.7514C11.4821 25.7648 10.1236 20.486 10.1236 19.438C10.1236 18.8558 10.3177 18.3124 11.4821 18.3124H15.5188C16.528 18.3124 16.9161 18.7394 17.3043 19.865C19.2838 25.5707 22.583 30.5778 23.9415 30.5778C24.4461 30.5778 24.679 30.3449 24.679 29.064V23.1642C24.5832 21.4873 23.9994 20.7566 23.5665 20.2148C23.2981 19.8788 23.0876 19.6154 23.0876 19.244C23.0876 18.7782 23.4758 18.3124 24.0968 18.3124H30.3847C31.2386 18.3124 31.5491 18.7782 31.5491 19.7874V27.7443C31.5491 28.5982 31.8985 28.9088 32.1702 28.9088C32.6748 28.9088 33.1017 28.5982 34.0333 27.6667C36.9055 24.4451 38.9627 19.4769 38.9627 19.4769C39.2344 18.8946 39.7002 18.3512 40.7094 18.3512H44.7072Z" fill="#488286"/>
</svg>
